<svg role="application" tabindex="0" class="recharts-surface" width="600" height="400" viewBox="0 0 600 400" style="width: 100%; height: 100%; display: block;"><title></title><desc></desc><g tabindex="-1"></g><g tabindex="-1"></g><defs><clipPath id="recharts1-clip"><rect x="5" y="5" height="390" width="590"></rect></clipPath></defs><g tabindex="-1"><g class="recharts-layer recharts-area"><g class="recharts-layer"><path stroke-width="1" fill="#8884d8" fill-opacity="0.6" height="390" stroke="none" width="590" id="recharts-area-_r_0_" class="recharts-curve recharts-area-area" d="M5,248.75C16.569,297.5,28.137,346.25,39.706,346.25C51.275,346.25,62.843,240.625,74.412,200C85.98,159.375,97.549,102.5,109.118,102.5C120.686,102.5,132.255,248.75,143.824,248.75C155.392,248.75,166.961,53.75,178.529,53.75C190.098,53.75,201.667,122.813,213.235,151.25C224.804,179.688,236.373,195.938,247.941,224.375C259.51,252.813,271.078,321.875,282.647,321.875C294.216,321.875,305.784,273.125,317.353,273.125C328.922,273.125,340.49,370.625,352.059,370.625C363.627,370.625,375.196,358.438,386.765,346.25C398.333,334.063,409.902,297.5,421.471,297.5C433.039,297.5,444.608,313.75,456.176,321.875C467.745,330,479.314,346.25,490.882,346.25C502.451,346.25,514.02,330,525.588,297.5C537.157,265,548.725,151.25,560.294,151.25C571.863,151.25,583.431,200,595,248.75L595,395C583.431,395,571.863,395,560.294,395C548.725,395,537.157,395,525.588,395C514.02,395,502.451,395,490.882,395C479.314,395,467.745,395,456.176,395C444.608,395,433.039,395,421.471,395C409.902,395,398.333,395,386.765,395C375.196,395,363.627,395,352.059,395C340.49,395,328.922,395,317.353,395C305.784,395,294.216,395,282.647,395C271.078,395,259.51,395,247.941,395C236.373,395,224.804,395,213.235,395C201.667,395,190.098,395,178.529,395C166.961,395,155.392,395,143.824,395C132.255,395,120.686,395,109.118,395C97.549,395,85.98,395,74.412,395C62.843,395,51.275,395,39.706,395C28.137,395,16.569,395,5,395Z"></path><path stroke-width="1" fill="none" fill-opacity="0.6" height="390" stroke="#3182bd" width="590" class="recharts-curve recharts-area-curve" d="M5,248.75C16.569,297.5,28.137,346.25,39.706,346.25C51.275,346.25,62.843,240.625,74.412,200C85.98,159.375,97.549,102.5,109.118,102.5C120.686,102.5,132.255,248.75,143.824,248.75C155.392,248.75,166.961,53.75,178.529,53.75C190.098,53.75,201.667,122.813,213.235,151.25C224.804,179.688,236.373,195.938,247.941,224.375C259.51,252.813,271.078,321.875,282.647,321.875C294.216,321.875,305.784,273.125,317.353,273.125C328.922,273.125,340.49,370.625,352.059,370.625C363.627,370.625,375.196,358.438,386.765,346.25C398.333,334.063,409.902,297.5,421.471,297.5C433.039,297.5,444.608,313.75,456.176,321.875C467.745,330,479.314,346.25,490.882,346.25C502.451,346.25,514.02,330,525.588,297.5C537.157,265,548.725,151.25,560.294,151.25C571.863,151.25,583.431,200,595,248.75"></path></g></g></g><g tabindex="-1"></g><g tabindex="-1"></g><g tabindex="-1"></g><g tabindex="-1"></g><g tabindex="-1"><g class="recharts-layer recharts-area-dots"><circle r="3" stroke-width="1.5" fill="#8884d8" fill-opacity="0.6" height="390" stroke="#fff" width="590" cx="5" cy="248.75" class="recharts-dot recharts-area-dot"></circle><circle r="3" stroke-width="1.5" fill="#8884d8" fill-opacity="0.6" height="390" stroke="#fff" width="590" cx="39.705882352941174" cy="346.25" class="recharts-dot recharts-area-dot"></circle><circle r="3" stroke-width="1.5" fill="#8884d8" fill-opacity="0.6" height="390" stroke="#fff" width="590" cx="74.41176470588235" cy="200" class="recharts-dot recharts-area-dot"></circle><circle r="3" stroke-width="1.5" fill="#8884d8" fill-opacity="0.6" height="390" stroke="#fff" width="590" cx="109.11764705882352" cy="102.50000000000004" class="recharts-dot recharts-area-dot"></circle><circle r="3" stroke-width="1.5" fill="#8884d8" fill-opacity="0.6" height="390" stroke="#fff" width="590" cx="143.8235294117647" cy="248.75" class="recharts-dot recharts-area-dot"></circle><circle r="3" stroke-width="1.5" fill="#8884d8" fill-opacity="0.6" height="390" stroke="#fff" width="590" cx="178.52941176470586" cy="53.75000000000004" class="recharts-dot recharts-area-dot"></circle><circle r="3" stroke-width="1.5" fill="#8884d8" fill-opacity="0.6" height="390" stroke="#fff" width="590" cx="213.23529411764704" cy="151.25" class="recharts-dot recharts-area-dot"></circle><circle r="3" stroke-width="1.5" fill="#8884d8" fill-opacity="0.6" height="390" stroke="#fff" width="590" cx="247.94117647058823" cy="224.375" class="recharts-dot recharts-area-dot"></circle><circle r="3" stroke-width="1.5" fill="#8884d8" fill-opacity="0.6" height="390" stroke="#fff" width="590" cx="282.6470588235294" cy="321.875" class="recharts-dot recharts-area-dot"></circle><circle r="3" stroke-width="1.5" fill="#8884d8" fill-opacity="0.6" height="390" stroke="#fff" width="590" cx="317.35294117647055" cy="273.125" class="recharts-dot recharts-area-dot"></circle><circle r="3" stroke-width="1.5" fill="#8884d8" fill-opacity="0.6" height="390" stroke="#fff" width="590" cx="352.0588235294117" cy="370.625" class="recharts-dot recharts-area-dot"></circle><circle r="3" stroke-width="1.5" fill="#8884d8" fill-opacity="0.6" height="390" stroke="#fff" width="590" cx="386.7647058823529" cy="346.25" class="recharts-dot recharts-area-dot"></circle><circle r="3" stroke-width="1.5" fill="#8884d8" fill-opacity="0.6" height="390" stroke="#fff" width="590" cx="421.4705882352941" cy="297.5" class="recharts-dot recharts-area-dot"></circle><circle r="3" stroke-width="1.5" fill="#8884d8" fill-opacity="0.6" height="390" stroke="#fff" width="590" cx="456.17647058823525" cy="321.875" class="recharts-dot recharts-area-dot"></circle><circle r="3" stroke-width="1.5" fill="#8884d8" fill-opacity="0.6" height="390" stroke="#fff" width="590" cx="490.88235294117646" cy="346.25" class="recharts-dot recharts-area-dot"></circle><circle r="3" stroke-width="1.5" fill="#8884d8" fill-opacity="0.6" height="390" stroke="#fff" width="590" cx="525.5882352941176" cy="297.5" class="recharts-dot recharts-area-dot"></circle><circle r="3" stroke-width="1.5" fill="#8884d8" fill-opacity="0.6" height="390" stroke="#fff" width="590" cx="560.2941176470588" cy="151.25" class="recharts-dot recharts-area-dot"></circle><circle r="3" stroke-width="1.5" fill="#8884d8" fill-opacity="0.6" height="390" stroke="#fff" width="590" cx="595" cy="248.75" class="recharts-dot recharts-area-dot"></circle></g></g><g tabindex="-1"></g><g tabindex="-1"></g><g tabindex="-1"></g><g tabindex="-1"></g></svg>